# xmcd
#
# Track frame offsets:
#	150
#	3697
#	28740
#	53230
#	80927
#	104947
#	127230
#	146430
#	172095
#	197585
#	221232
#	244835
#	271125
#	293120
#	312415
#	329025
#
# Disc length: 4667 seconds
# Revision: 0
# Processed by: cddbd v1.5.2PL0 Copyright (c) Steve Scherf et al.
# Submitted via: dBpowerAMP V12.0
#
DISCID=0c123910
DTITLE=Lauryn Hill - The Miseducation of Lauryn Hill
DYEAR=1998
DGENRE=Blues
TTITLE0=Intro
TTITLE1=Lost Ones
TTITLE2=Ex-Factor
TTITLE3=To Zion
TTITLE4=Doo Wop (That Thing)
TTITLE5=Superstar
TTITLE6=Final Hour
TTITLE7=When It Hurts So Bad
TTITLE8=I Used to Love Him
TTITLE9=Forgive Them Father
TTITLE10=Every Ghetto, Every City
TTITLE11=Nothing Even Matters
TTITLE12=Everything Is Everything
TTITLE13=The Miseducation of Lauryn Hill
TTITLE14=Can't Take My Eyes Off of You
TTITLE15=Tell Him
EXTD=
EXTT0=
EXTT1=
EXTT2=
EXTT3=
EXTT4=
EXTT5=
EXTT6=
EXTT7=
EXTT8=
EXTT9=
EXTT10=
EXTT11=
EXTT12=
EXTT13=
EXTT14=
EXTT15=
PLAYORDER=
